<?xml version="1.0" encoding="UTF-8"?><svg id="Capa_2" xmlns="http://www.w3.org/2000/svg" viewBox="0 0 348.02 177.48"><defs><style>.cls-1{letter-spacing:0em;}.cls-2{letter-spacing:0em;}.cls-3{fill:#eb6023;}.cls-4{fill:#f1896e;}.cls-5{letter-spacing:-.06em;}.cls-6{stroke-width:2px;}.cls-6,.cls-7{fill:none;stroke:#f1896e;stroke-linecap:round;stroke-linejoin:round;}.cls-8{fill:#1d1d1b;font-family:NewOrder-Regular, 'New Order';font-size:72px;}.cls-7{stroke-width:3px;}</style></defs><path class="cls-4" d="m73.54,0v2c3.37,0,6.87.23,10.42.69l1.97.25v11.49l-11.88,14.35c-.29.35-.45.79-.46,1.24l-.93,60.32c0,.48.16.95.47,1.32l12.81,15.28v30.12l-11.53,11.53c-.3.3-.49.68-.56,1.1l-4.1,25.44c-2.63-.63-7.81-2.26-14.12-6.21-8.47-5.3-20.77-15.97-31.25-36.76-.5-.99-1-2.02-1.49-3.04C3.1,87.32,12.32,44.29,12.98,41.39c.54-1.24,4.77-10.55,13.72-19.72C39.44,8.62,55.2,2,73.54,2V0m0,0C27.83,0,11.07,40.77,11.07,40.77c0,0-10.95,44.95,10.01,89.2.5,1.05,1,2.08,1.51,3.09,20.83,41.32,48.8,44.43,48.8,44.43l4.43-27.48,12.11-12.11v-31.68l-13.28-15.84.93-60.32,12.34-14.91V1.17l-3.73-.47C80.49.22,76.93,0,73.54,0h0Z"/><path class="cls-6" d="m23.18,132.05s-37.93-27.83-14.59-47.5"/><path class="cls-3" d="m82.84,155.11l11.52-11.74c.27-.28.43-.65.43-1.04l.23-35.87c0-.32-.1-.63-.28-.89l-12.53-17.31-.23-54.86,13.39-15.88c.23-.28.36-.63.35-.99l-.2-12.87c4.09.81,14.89,3.64,24.96,12.07,16.77,14.03,24.01,37.3,20.93,67.28-7.47,72.7-38.97,84.57-39.29,84.68-.06.02-.13.05-.19.08-.15.08-13.88,7.05-21.44,8.09l2.36-20.75Z"/><path class="cls-4" d="m97.05,5.53c4.81,1.18,13.98,4.2,22.58,11.44,7.19,6.05,12.62,13.86,16.14,23.2,4.45,11.83,5.84,26.19,4.15,42.68-2.13,20.69-7.68,49.46-22.06,68.99-8.5,11.54-16.17,14.4-16.22,14.42-.13.05-.26.1-.39.17-3.63,1.85-12.86,6.14-19.04,7.58l2.07-18.22,11.16-11.37c.55-.56.85-1.3.86-2.08l.23-35.87c0-.64-.2-1.26-.57-1.78l-12.24-16.92-.22-53.83,13.03-15.46c.47-.55.72-1.26.71-1.98l-.17-10.97m-3.06-3.66l.23,14.67-13.74,16.3.23,55.89,12.81,17.71-.23,35.87-11.88,12.11-2.62,23.06c7.39,0,23.81-8.38,23.81-8.38,0,0,32.61-11.18,40.29-85.94C150.58,8.39,93.99,1.87,93.99,1.87h0Z"/><path class="cls-4" d="m25.9,70.49c4.18-4.26,10.41-5.54,16.09-6.44s12.43-1.12,17.76,2.02c2.78,1.64,5.3-2.68,2.52-4.32-6.44-3.79-14.04-3.68-21.2-2.59-6.71,1.02-13.8,2.78-18.71,7.79-2.26,2.3,1.28,5.84,3.54,3.54h0Z"/><path class="cls-4" d="m27.94,86.55c2.3,2.24,4.88,4.29,8.04,5.12,3.32.87,6.97.64,10.33.17,6.25-.89,12.13-3.88,15.64-9.26,1.76-2.7-2.56-5.21-4.32-2.52-2.69,4.12-7.46,6.21-12.2,6.89-2.53.36-5.4.55-7.9-.05s-4.31-2.18-6.06-3.89c-2.31-2.25-5.85,1.29-3.54,3.54h0Z"/><path class="cls-4" d="m60.68,119.24c2.06-.51,4.11.58,5.91,1.48,2.27,1.13,4.52,2.14,7.09,2.3,2.33.14,4.77-.48,6.77-1.66.88-.52,1.63-1.32,2.56-1.75s2.06-.22,3.05-.12c1.35.13,2.5-1.24,2.5-2.5,0-1.46-1.15-2.37-2.5-2.5-2.57-.26-4.74.1-6.84,1.66-1.73,1.29-3.62,2.13-5.83,1.85s-4.21-1.65-6.24-2.54c-2.5-1.1-5.09-1.71-7.81-1.05-3.12.77-1.8,5.59,1.33,4.82h0Z"/><path class="cls-4" d="m52.06,143.8c3.48-.41,6.51-1.63,9.33-3.7,1.18-.87,2.36-1.86,3.71-2.46,1.13-.5,2.15-.43,3.31-.08,2.96.9,5.57,2.58,8.8,1.93,1.55-.31,2.83-1.21,4.26-1.8s2.91-.51,4.39.06c1.26.48,2.74-.54,3.08-1.75.39-1.41-.48-2.59-1.75-3.08-1.8-.69-3.75-.82-5.64-.46-1.63.31-2.96,1.21-4.46,1.84-2.59,1.09-5.24-1-7.7-1.67-3.26-.89-6.24.09-8.93,1.98s-5.06,3.78-8.39,4.18c-1.34.16-2.5,1.03-2.5,2.5,0,1.23,1.15,2.66,2.5,2.5h0Z"/><path class="cls-4" d="m57.15,140.3c.87,1.89,2.76,3.06,4.37,4.25s3.32,2.38,5.17,3.25c3.96,1.87,8.37,2.43,12.4.47,1.21-.59,1.54-2.32.9-3.42-.73-1.24-2.2-1.49-3.42-.9-2.4,1.16-5.44.53-7.95-.76-1.47-.76-2.84-1.69-4.18-2.66-1.23-.89-2.42-1.54-2.98-2.75s-2.34-1.53-3.42-.9c-1.26.74-1.46,2.19-.9,3.42h0Z"/><polyline class="cls-7" points="104.82 7.46 104.82 25.85 91.66 38.97 91.66 84.19 104.82 99.12 105.63 141.66 91.66 157.46 92.47 171.43"/><polyline class="cls-7" points="122.18 17.94 122.18 32.08 109.25 44.68 108.43 77.09 120.17 88.39 120.38 121.44 128.55 131"/><polyline class="cls-7" points="136.27 40.47 126.13 51.02 126.13 70.11 139.07 85.52"/><text class="cls-8" transform="translate(157.75 116.41)"><tspan class="cls-5" x="0" y="0">V</tspan><tspan class="cls-2" x="38.81" y="0">e</tspan><tspan class="cls-1" x="81.21" y="0">r</tspan><tspan x="101.74" y="0">sa</tspan></text></svg>